<svg id="Layer_1" data-name="Layer 1" xmlns="http://www.w3.org/2000/svg" viewBox="0 0 250 250"><defs><style>.cls-1{fill:#f5fd41;}.cls-2{fill:#2ae7fd;}</style></defs><title>Artboard 1</title><polygon class="cls-1" points="187.5 125 125 125 125 62.5 125 0 62.5 0 62.5 62.5 62.5 125 62.5 187.5 125 187.5 187.5 187.5 250 187.5 250 125 187.5 125"/><polygon class="cls-2" points="187.5 187.5 125 187.5 62.5 187.5 62.5 125 62.5 62.5 62.5 0 0 0 0 62.5 0 125 0 187.5 0 250 62.5 250 125 250 187.5 250 250 250 250 187.5 187.5 187.5"/></svg>